<?xml version="1.0" standalone="no"?>
<!DOCTYPE svg PUBLIC "-//W3C//DTD SVG 20010904//EN"
 "http://www.w3.org/TR/2001/REC-SVG-20010904/DTD/svg10.dtd">
<svg version="1.0" xmlns="http://www.w3.org/2000/svg"
 width="256.000000pt" height="256.000000pt" viewBox="0 0 256.000000 256.000000"
 preserveAspectRatio="xMidYMid meet">
<metadata>
Created by potrace 1.14, written by Peter Selinger 2001-2017
</metadata>
<g transform="translate(0.000000,256.000000) scale(0.100000,-0.100000)"
fill="#000000" stroke="none">
<path d="M0 2196 c1 -277 4 -366 13 -369 9 -4 9 -6 0 -6 -7 -1 -13 -6 -13 -11
0 -7 6 -7 19 -1 15 9 47 -4 162 -62 79 -40 157 -73 172 -75 16 -1 42 -15 59
-33 17 -17 37 -28 45 -25 9 4 11 1 7 -5 -4 -7 -1 -10 7 -7 8 3 31 -9 53 -25
32 -26 41 -29 57 -19 15 10 19 9 19 -3 0 -8 6 -15 14 -15 8 0 24 -15 35 -33
18 -29 19 -38 9 -73 -7 -21 -16 -42 -21 -45 -5 -3 -9 -10 -8 -15 0 -5 -6 -8
-14 -8 -7 1 -11 -4 -9 -11 3 -6 -3 -22 -14 -35 l-18 -22 -40 20 c-21 12 -32
21 -24 22 8 0 2 7 -14 15 -29 15 -46 10 -68 -20 -5 -7 -8 -7 -8 0 0 6 -16 19
-35 29 -41 22 -44 41 -11 79 18 21 24 40 25 84 1 76 -5 93 -35 93 -37 0 -64
-52 -64 -122 0 -31 5 -60 11 -64 6 -3 9 -15 6 -25 -3 -11 2 -23 11 -29 12 -6
5 -7 -23 -3 -38 6 -65 23 -66 40 0 4 -3 10 -6 13 -4 3 -3 -1 1 -7 5 -9 0 -13
-16 -13 -17 0 -19 3 -9 9 15 10 11 13 -46 31 -24 7 -43 17 -43 22 0 4 -8 8
-17 8 -16 0 -16 2 -3 11 12 9 10 10 -8 6 -18 -4 -25 0 -33 21 -9 24 -12 25
-20 10 -5 -10 -16 -15 -24 -12 -13 5 -15 -9 -15 -87 1 -99 10 -125 45 -124 11
0 31 -5 45 -11 26 -12 115 -36 137 -37 7 0 10 -4 7 -9 -5 -7 13 -12 44 -11 7
1 11 -2 7 -5 -3 -3 20 -18 51 -33 31 -16 63 -37 70 -48 8 -11 25 -21 39 -23
23 -3 19 -8 -46 -63 -82 -68 -137 -122 -158 -153 -8 -11 -29 -29 -47 -38 -18
-10 -31 -22 -28 -26 7 -11 -14 -10 -37 3 -11 6 -45 11 -75 12 l-54 2 0 -432 0
-433 164 0 164 0 22 37 c11 20 23 50 26 67 27 155 68 259 109 278 16 7 43 44
74 103 74 137 133 209 203 250 33 20 67 37 76 38 10 1 23 6 30 11 26 16 21 -1
-16 -53 -62 -90 -71 -104 -66 -112 5 -9 -26 -67 -60 -113 -39 -52 -62 -91 -49
-83 6 4 -9 -33 -33 -83 -39 -77 -49 -107 -53 -153 -1 -5 -6 -5 -13 -1 -7 4 -8
3 -4 -5 4 -6 -7 -39 -24 -74 -32 -62 -49 -87 -37 -54 10 27 1 20 -22 -18 l-20
-35 238 0 238 0 11 25 c13 27 35 35 25 8 -4 -11 -3 -14 5 -9 7 4 12 1 12 -8 0
-9 7 -16 15 -16 10 0 15 10 15 30 0 35 25 90 41 90 6 0 8 4 5 9 -3 5 2 12 11
15 14 6 15 9 4 15 -11 7 -10 13 7 31 12 13 20 34 19 49 0 14 2 37 6 51 4 14 4
19 1 12 -4 -9 -11 -5 -20 14 -13 24 -12 29 2 46 10 10 12 18 6 18 -7 0 -12 7
-12 16 0 8 4 13 8 10 4 -2 9 16 10 42 1 25 7 49 14 54 9 5 7 8 -7 9 -19 0 -19
1 -1 8 13 5 16 10 9 14 -7 4 -10 20 -8 35 2 15 4 33 4 41 1 10 4 11 15 2 11
-9 15 -5 20 22 4 19 20 49 36 66 17 17 30 35 30 40 0 5 20 17 45 28 42 17 59
33 35 33 -5 0 -10 5 -10 11 0 5 5 7 10 4 6 -3 10 -1 10 4 0 6 9 11 20 11 11 0
20 6 20 14 0 8 15 18 33 22 l32 8 -40 6 -40 6 58 8 c53 8 60 7 73 -13 9 -12
26 -21 40 -21 14 0 22 -4 19 -10 -3 -5 -15 -10 -25 -10 -13 0 -17 -5 -14 -15
4 -8 1 -15 -6 -15 -6 0 -8 -4 -5 -10 3 -5 17 -10 30 -10 17 0 23 -4 19 -14 -5
-14 16 -15 69 -1 l28 7 -7 -42 c-5 -32 -4 -41 5 -36 7 4 3 -14 -8 -44 -17 -44
-20 -105 -9 -148 3 -10 -33 -115 -43 -126 -14 -16 -10 -39 5 -33 8 3 16 -2 19
-14 3 -10 1 -19 -4 -19 -5 0 -9 -7 -9 -16 0 -8 3 -13 8 -11 8 6 10 -209 1
-217 -3 -3 -3 -21 -1 -41 l4 -35 484 0 484 0 0 193 0 192 -21 -42 c-14 -29
-28 -43 -40 -43 -25 0 -34 22 -20 48 14 27 4 52 -20 52 -11 0 -31 7 -44 16
-14 9 -25 12 -25 6 0 -7 -13 -6 -35 3 -33 14 -35 14 -60 -11 -15 -14 -29 -24
-31 -21 -15 14 -22 93 -17 192 7 150 5 224 -8 262 -6 18 -7 42 -4 54 7 20 12
21 69 16 64 -7 199 -30 235 -42 l21 -6 0 614 0 614 -25 13 c-14 7 -25 17 -25
22 0 5 -4 7 -9 4 -5 -3 -14 9 -22 27 -14 37 -44 69 -54 59 -3 -4 -1 6 4 21 15
39 13 47 -3 17 -13 -23 -14 -22 -11 25 2 29 -2 62 -11 80 -14 31 -14 31 3 -35
2 -8 -3 -1 -11 15 -8 17 -12 41 -9 55 3 17 2 21 -5 12 -7 -11 -10 -10 -14 5
-3 10 -9 27 -13 38 -4 14 -2 12 9 -5 l16 -25 -6 30 c-4 23 -3 27 5 15 8 -11
10 -7 6 20 -4 25 -3 29 3 15 8 -18 9 -17 14 7 3 15 2 25 -2 23 -5 -3 -10 2
-13 9 -5 12 -48 15 -251 16 -135 0 -246 -2 -246 -5 0 -4 5 -16 11 -28 10 -21
10 -21 -5 -3 -9 11 -16 23 -16 28 0 4 -162 8 -361 8 -348 0 -360 -1 -354 -19
10 -32 -26 -37 -52 -7 l-22 26 -546 0 -545 0 0 -364z m1980 189 c29 -55 48
-95 43 -90 -6 6 -34 55 -63 110 -29 55 -48 96 -43 90 6 -5 34 -55 63 -110z
m-457 -41 c22 -4 37 -12 37 -20 0 -8 6 -13 13 -11 14 2 21 -44 12 -80 -5 -21
-11 -24 -34 -21 -41 6 -34 -21 12 -45 38 -19 45 -35 26 -54 -8 -8 -7 -17 2
-31 7 -12 11 -23 8 -26 -8 -8 -80 11 -93 25 -8 9 -7 11 6 6 20 -7 36 12 19 22
-19 12 -95 12 -146 1 -35 -8 -50 -8 -55 0 -5 8 -9 7 -13 -3 -4 -11 -17 -15
-40 -13 -59 5 -63 16 -16 47 31 20 47 25 55 18 12 -10 54 3 54 17 0 3 -5 2
-12 -2 -7 -4 -8 -3 -4 5 5 7 16 9 28 5 14 -4 18 -2 14 5 -4 6 0 11 11 12 26 1
54 7 60 12 11 12 -10 46 -32 51 -29 7 -32 31 -9 64 16 23 34 26 97 16z m570
-161 c64 -115 109 -203 103 -203 -2 0 -39 64 -82 143 -42 78 -79 145 -81 150
-2 4 -2 7 0 7 3 0 30 -44 60 -97z m-1423 -6 c0 -4 4 -5 10 -2 16 10 37 -17 32
-42 -2 -13 -9 -23 -15 -23 -6 0 -7 -3 -3 -7 4 -4 16 3 26 17 l20 25 1 -45 c1
-25 1 -51 0 -58 -2 -10 2 -11 16 -4 11 7 24 7 35 1 12 -6 18 -6 18 1 0 5 5 10
11 10 6 0 9 -7 6 -14 -4 -10 -1 -13 8 -10 10 4 13 -5 12 -42 -2 -39 -6 -51
-24 -60 -18 -8 -20 -13 -10 -24 10 -10 8 -12 -8 -6 -11 5 -27 9 -35 10 -8 2
-17 13 -18 25 -3 20 -8 22 -34 17 -42 -8 -71 10 -65 40 3 18 0 24 -14 24 -22
0 -26 39 -7 58 6 6 8 15 4 19 -4 4 -10 3 -14 -3 -4 -5 -16 -10 -27 -9 -14 0
-20 7 -20 25 0 19 -4 24 -20 22 -44 -8 -65 -4 -65 13 0 18 16 20 24 3 5 -10 7
-10 12 0 3 6 22 12 42 12 28 0 33 3 22 10 -10 7 -11 10 -2 11 27 3 31 4 37 11
10 9 45 6 45 -5z m-365 -68 c25 -12 54 -31 65 -41 10 -10 23 -18 27 -18 5 0
32 -16 60 -35 29 -19 72 -46 97 -60 25 -14 79 -51 122 -82 l76 -57 -6 -52
c-12 -108 -51 -158 -95 -123 -13 10 -29 19 -37 19 -8 0 -14 5 -14 11 0 5 -4 8
-9 4 -5 -3 -16 2 -24 10 -9 8 -21 15 -27 15 -15 0 -80 61 -80 74 0 7 -9 12
-20 12 -11 0 -20 -4 -20 -9 0 -5 -7 -4 -16 4 -8 7 -13 21 -11 30 3 10 -1 23
-9 30 -11 9 -14 8 -14 -5 0 -13 -9 -15 -44 -12 -45 5 -174 65 -196 92 -7 8
-20 14 -30 14 -10 0 -29 13 -43 29 -14 17 -28 27 -32 23 -5 -4 -5 -1 -1 6 4 7
13 9 19 5 12 -7 47 -14 85 -17 13 0 22 -7 22 -17 0 -9 7 -20 16 -23 8 -3 12
-2 9 4 -3 6 5 10 19 10 14 0 26 -5 26 -11 0 -5 -5 -7 -12 -3 -7 4 -8 3 -4 -5
6 -9 11 -9 24 1 10 8 13 8 9 1 -9 -15 13 -23 34 -12 10 5 16 3 16 -6 0 -7 -6
-11 -13 -8 -8 3 -12 -3 -11 -16 2 -24 12 -28 21 -6 3 8 12 15 21 15 8 0 15 5
15 11 0 5 -4 7 -10 4 -6 -4 -10 5 -10 19 0 16 -6 26 -15 26 -8 0 -15 6 -15 13
0 6 -21 27 -47 45 -54 37 -42 44 15 9 75 -47 108 -37 37 12 -56 38 -87 70 -79
83 4 7 3 8 -4 4 -7 -4 -12 -3 -12 3 0 26 49 18 125 -20z m495 -50 c0 -5 -4 -9
-10 -9 -5 0 -10 7 -10 16 0 8 5 12 10 9 6 -3 10 -10 10 -16z m1418 -114 c-3
-3 -9 2 -12 12 -6 14 -5 15 5 6 7 -7 10 -15 7 -18z m-1168 -44 c0 -6 -4 -13
-10 -16 -5 -3 -10 1 -10 9 0 9 5 16 10 16 6 0 10 -4 10 -9z m261 -63 c7 -24
22 -59 31 -78 22 -42 23 -70 2 -70 -9 0 -12 -5 -8 -12 5 -8 -2 -9 -24 -5 -37
8 -62 -12 -62 -49 0 -15 -6 -24 -16 -24 -10 0 -13 -6 -10 -17 4 -11 -4 -30
-20 -48 l-25 -30 15 30 c11 24 13 50 7 115 -6 67 -4 92 8 118 9 19 20 31 28
28 7 -3 13 1 13 10 0 24 29 86 38 80 5 -3 15 -24 23 -48z m-515 -62 c18 -19
18 -108 0 -145 -8 -15 -23 -34 -32 -42 -10 -8 -15 -9 -11 -2 4 7 -1 14 -13 18
-24 8 -25 17 -6 53 7 15 17 51 21 80 7 54 16 62 41 38z m280 -64 c-12 -11 -15
5 -8 44 l7 39 3 -39 c2 -21 1 -41 -2 -44z m-156 -48 c0 -52 -3 -73 -11 -68 -8
4 -9 0 -4 -15 3 -12 2 -21 -4 -21 -5 0 -12 12 -14 28 -3 15 -3 -2 -1 -38 4
-61 4 -63 -10 -39 -16 32 -10 113 10 130 11 9 14 7 15 -12 0 -13 3 -19 5 -13
3 6 1 30 -5 53 -10 44 -4 84 10 75 5 -3 9 -39 9 -80z m100 65 c0 -5 -4 -9 -10
-9 -5 0 -10 7 -10 16 0 8 5 12 10 9 6 -3 10 -10 10 -16z m-164 -11 c-22 -80
-54 -372 -38 -349 8 11 10 11 15 0 4 -11 6 -10 6 2 1 9 10 24 20 33 19 17 19
16 19 -26 0 -24 6 -56 12 -73 6 -16 9 -45 5 -65 -3 -19 -1 -42 5 -50 8 -11 9
-7 4 15 -9 38 7 25 22 -18 l12 -32 7 28 c11 40 23 33 28 -15 3 -24 3 -10 1 30
-4 80 9 95 26 31 8 -28 9 -71 4 -128 -8 -84 -9 -85 -15 -36 l-6 50 -2 -40 c-2
-22 -2 -74 -1 -116 1 -43 -3 -80 -9 -83 -6 -4 -10 18 -9 61 0 89 -6 202 -10
180 -2 -9 -8 -14 -14 -11 -6 4 -8 -2 -3 -16 4 -13 3 -20 -2 -17 -5 3 -7 -7 -5
-25 3 -21 1 -29 -6 -24 -6 4 -9 13 -5 21 3 8 1 15 -5 15 -10 0 -21 -44 -23
-89 0 -14 -3 -20 -6 -12 -3 8 -8 9 -12 3 -3 -6 -6 20 -6 56 0 37 -4 85 -8 107
-5 28 -5 36 2 25 20 -29 11 23 -10 60 -11 19 -17 26 -13 15 14 -42 14 -59 -1
-27 -8 17 -20 32 -25 32 -6 0 -10 8 -10 18 -1 16 -1 16 -10 0 -6 -10 -29 -19
-58 -23 -26 -4 -55 -9 -65 -12 -16 -4 -17 0 -12 29 3 18 8 49 10 68 8 77 17
124 25 140 5 10 6 20 3 24 -3 3 -2 6 4 6 6 0 16 13 22 28 7 16 27 43 45 60 35
32 48 58 66 130 6 23 16 42 22 42 6 0 8 -9 4 -22z m21 -35 c-3 -10 -5 -4 -5
12 0 17 2 24 5 18 2 -7 2 -21 0 -30z m208 -33 c15 -12 21 -12 47 3 36 21 60
22 34 2 -11 -8 -15 -15 -8 -15 8 0 9 -7 2 -26 -15 -38 -26 -179 -13 -171 5 4
8 -6 5 -25 -3 -17 1 -33 7 -38 15 -9 4 -60 -13 -60 -32 1 -84 130 -101 253 -8
59 3 143 15 112 4 -12 15 -27 25 -35z m-218 -152 c-3 -8 -6 -5 -6 6 -1 11 2
17 5 13 3 -3 4 -12 1 -19z m74 -81 c-10 -9 -11 -8 -5 6 3 10 9 15 12 12 3 -3
0 -11 -7 -18z m359 -11 c0 -16 -18 -31 -47 -40 -35 -11 -31 29 4 48 30 15 43
13 43 -8z m-383 -418 c-3 -8 -6 -5 -6 6 -1 11 2 17 5 13 3 -3 4 -12 1 -19z
m13 -79 c0 -11 -4 -18 -9 -15 -10 7 -25 -22 -23 -44 1 -9 -1 -10 -4 -3 -9 19
-34 3 -34 -22 0 -13 -4 -27 -10 -30 -5 -3 -10 0 -10 8 0 19 29 86 30 68 0 -22
30 8 30 31 0 10 5 16 10 13 6 -3 10 -1 10 4 0 6 2 11 5 11 3 0 5 -9 5 -21z
m1384 -520 c-3 -5 -10 -7 -15 -3 -5 3 -7 10 -3 15 3 5 10 7 15 3 5 -3 7 -10 3
-15z m109 -74 c-1 -5 -12 -12 -25 -15 -16 -4 -19 -8 -10 -14 6 -4 12 -11 12
-15 0 -12 -49 -20 -56 -9 -3 4 -9 6 -14 3 -13 -8 -20 9 -9 25 5 10 9 11 9 3 0
-7 7 -10 15 -7 8 4 12 10 9 15 -3 5 -2 14 1 20 9 13 71 8 68 -6z"/>
<path d="M637 2173 c-4 -3 -7 -11 -7 -17 0 -6 5 -5 12 2 6 6 9 14 7 17 -3 3
-9 2 -12 -2z"/>
<path d="M592 2094 c-7 -8 -8 -14 -3 -14 10 0 25 19 20 25 -2 1 -10 -3 -17
-11z"/>
<path d="M308 1843 c7 -3 16 -2 19 1 4 3 -2 6 -13 5 -11 0 -14 -3 -6 -6z"/>
<path d="M400 1799 c0 -5 5 -7 10 -4 6 3 10 8 10 11 0 2 -4 4 -10 4 -5 0 -10
-5 -10 -11z"/>
<path d="M850 1245 c0 -5 5 -17 10 -25 5 -8 10 -10 10 -5 0 6 -5 17 -10 25 -5
8 -10 11 -10 5z"/>
<path d="M12 1788 c-17 -17 -15 -38 3 -38 10 0 14 9 13 25 -1 14 -3 25 -3 25
-1 0 -6 -5 -13 -12z"/>
<path d="M410 200 c0 -5 5 -10 11 -10 5 0 7 5 4 10 -3 6 -8 10 -11 10 -2 0 -4
-4 -4 -10z"/>
</g>
</svg>
